<?xml version="1.0" encoding="utf-8"?>
<!-- Generator: Adobe Illustrator 25.4.0, SVG Export Plug-In . SVG Version: 6.00 Build 0)  -->
<svg version="1.1" id="Capa_1" xmlns="http://www.w3.org/2000/svg" xmlns:xlink="http://www.w3.org/1999/xlink" x="0px" y="0px"
	 viewBox="0 0 800 450" style="enable-background:new 0 0 800 450;" xml:space="preserve">
<style type="text/css">
	.st0{font-family:'ArialMT';}
	.st1{font-size:12px;}
</style>
<image style="overflow:visible;enable-background:new    ;" width="1600" height="900" 
	img src="411-1600x900-grayscale.jpg" transform="matrix(0.5 0 0 0.5 0 -1.464844e-05)">
<polygon points="372,216 372,150 371,150 371,137 369,137 369,131 368,131 368,128 367,128 367,125 365,125 365,124 364,124 
	364,122 363,122 363,116 362,116 362,108 361,108 361,106 360,86 359,106 359,108 358,108 358,116 357,116 357,122 356,122 356,124 
	355,124 355,125 353,125 353,128 352,128 352,131 351,131 351,137 349,137 349,150 348,150 348,216 345,216 345,243 375,243 
	375,216 "/>
<text transform="matrix(1 0 0 1 366.2178 78.1255)" class="st0 st1">Empire State Building</text>
</svg>
